<svg width="24" height="23" xmlns="http://www.w3.org/2000/svg">
 <g>
  <title>Layer 1</title>
  <g>
   <title>Adobe Premiere Pro</title>
   <path fill="#615c73" d="m10.15,7.92a2.93,2.93 0 0 0 -1.18,-0.2a13.9,13.9 0 0 0 -1.09,0.02l0,3.36l0.39,0.02l0.53,0c0.39,0 0.78,-0.06 1.15,-0.18c0.32,-0.09 0.6,-0.28 0.82,-0.53c0.21,-0.25 0.31,-0.59 0.31,-1.03a1.45,1.45 0 0 0 -0.93,-1.46zm9.6,-8.12l-15.5,0a4.25,4.25 0 0 0 -4.25,4.25l0,14.9c0,2.35 1.9,4.25 4.25,4.25l15.5,0c2.35,0 4.25,-1.9 4.25,-4.25l0,-14.9c0,-2.35 -1.9,-4.25 -4.25,-4.25zm-7.09,11.65c-0.4,0.56 -0.96,0.98 -1.61,1.22c-0.68,0.25 -1.43,0.34 -2.25,0.34l-0.5,-0.01l-0.43,-0.01l0,3.21a0.12,0.12 0 0 1 -0.11,0.14l-1.94,0c-0.08,0 -0.12,-0.04 -0.12,-0.13l0,-10.29c0,-0.07 0.03,-0.11 0.1,-0.11l0.56,-0.01l0.76,-0.02l0.87,-0.02l0.91,-0.01c0.82,0 1.5,0.1 2.06,0.31c0.5,0.17 0.96,0.45 1.34,0.82c0.32,0.32 0.57,0.71 0.73,1.14c0.15,0.42 0.23,0.85 0.23,1.3c0,0.86 -0.2,1.57 -0.6,2.13zm6.82,-3.15l0,1.95c0,0.08 -0.05,0.11 -0.16,0.11a4.35,4.35 0 0 0 -1.92,0.37c-0.19,0.09 -0.37,0.21 -0.51,0.37l0,5.1c0,0.1 -0.04,0.14 -0.13,0.14l-1.97,0a0.14,0.14 0 0 1 -0.16,-0.12l0,-5.58l-0.01,-0.75l-0.02,-0.78c0,-0.23 -0.02,-0.45 -0.04,-0.68a0.1,0.1 0 0 1 0.07,-0.11l1.78,0c0.1,0 0.18,0.07 0.2,0.16a3.03,3.03 0 0 1 0.13,0.92c0.3,-0.35 0.67,-0.64 1.08,-0.86a3.1,3.1 0 0 1 1.52,-0.39c0.07,-0.01 0.13,0.04 0.14,0.11l0,0.04z"/>
  </g>
 </g>

</svg>