<svg width="13" height="14" xmlns="http://www.w3.org/2000/svg">
 <g id="Layer_1">
  <title>Layer 1</title>
  <g id="svg_1">
   <path id="svg_2" d="m5,13.50089l0,-3.505c0,-0.245 0.25,-0.495 0.5,-0.495l2,0c0.25,0 0.5,0.25 0.5,0.5l0,3.5a0.5,0.5 0 0 0 0.5,0.5l4,0a0.5,0.5 0 0 0 0.5,-0.5l0,-7a0.5,0.5 0 0 0 -0.146,-0.354l-1.354,-1.353l0,-3.293a0.5,0.5 0 0 0 -0.5,-0.5l-1,0a0.5,0.5 0 0 0 -0.5,0.5l0,1.293l-2.646,-2.647a0.5,0.5 0 0 0 -0.708,0l-6,6a0.5,0.5 0 0 0 -0.146,0.354l0,7a0.5,0.5 0 0 0 0.5,0.5l4,0a0.5,0.5 0 0 0 0.5,-0.5z" fill="#615c73"/>
  </g>
 </g>

</svg>