<svg width="262" height="306" xmlns="http://www.w3.org/2000/svg">
 <g>
  <title>Layer 1</title>
  <g id="svg_2" stroke="null">
   <path fill="#615c73" d="m261.99999,84.21428l0,177.78571a37.42857,37.42857 0 0 1 -37.42857,37.42857l0,-18.71428a18.71428,18.71428 0 0 0 18.71428,-18.71428l0,-177.78571l-37.42857,0a28.07143,28.07143 0 0 1 -28.07143,-28.07143l0,-37.42857l-102.92857,0a18.71428,18.71428 0 0 0 -18.71428,18.71428l0,168.42856l-18.71428,0l0,-168.42856a37.42857,37.42857 0 0 1 37.42857,-37.42857l102.92857,0l84.21428,84.21428zm-261.99999,193.52442a21.12843,21.12843 0 0 0 7.50443,15.40186c2.43286,2.02114 5.38971,3.59314 8.94543,4.716s7.69157,1.703 12.445,1.703c6.32543,0 11.67771,-0.99186 16.05686,-2.95686c4.43529,-1.98371 7.78514,-4.716 10.10571,-8.23429a21.89571,21.89571 0 0 0 3.49957,-12.27657c0,-4.192 -0.84214,-7.67286 -2.52643,-10.48a18.71428,18.71428 0 0 0 -7.01786,-6.681a37.93386,37.93386 0 0 0 -10.57357,-3.93l-11.62157,-2.69486a18.15286,18.15286 0 0 1 -7.57929,-3.29371a6.90557,6.90557 0 0 1 -2.67614,-5.59557c0,-2.91943 1.14157,-5.31486 3.44343,-7.18629c2.33929,-1.89014 5.53943,-2.84457 9.60043,-2.84457c2.67614,0 4.978,0.41171 6.92429,1.27257a11.67771,11.67771 0 0 1 4.585,3.38729a10.48,10.48 0 0 1 2.24571,4.82829l14.03571,0a20.436,20.436 0 0 0 -3.72414,-10.59229a22.64428,22.64428 0 0 0 -9.35714,-7.67286a33.929,33.929 0 0 0 -14.59714,-2.84457c-5.48329,0 -10.33029,0.93571 -14.52229,2.80714c-4.21071,1.85271 -7.48571,4.49143 -9.88114,7.87871c-2.37671,3.406 -3.55571,7.39214 -3.55571,11.95843c0,3.76157 0.74857,7.03657 2.30186,9.80629c1.53457,2.78843 3.72414,5.05286 6.56871,6.86814c2.86329,1.77786 6.21314,3.12529 10.10571,3.98614l11.56543,2.69486c3.87386,0.917 6.73714,2.11471 8.646,3.61186a7.24243,7.24243 0 0 1 2.86329,6.08214c0,2.05857 -0.54271,3.87386 -1.59071,5.42714a10.44257,10.44257 0 0 1 -4.79086,3.63057c-2.07729,0.87957 -4.65986,1.31 -7.729,1.31c-2.18957,0 -4.192,-0.24329 -5.98857,-0.74857a15.62643,15.62643 0 0 1 -4.64114,-2.15214a10.83557,10.83557 0 0 1 -4.77214,-7.18629l-14.29771,0l-0.00002,0.00001zm128.71685,27.86557l-9.48814,-13.82986c3.29371,-3.03171 5.80143,-6.77457 7.50443,-11.22857c1.72171,-4.47271 2.58257,-9.48814 2.58257,-15.08371l0,-9.37586c0,-6.943 -1.31,-12.969 -3.89257,-18.09671a27.97786,27.97786 0 0 0 -11.02271,-11.90229c-4.79086,-2.80714 -10.49871,-4.21071 -17.161,-4.21071c-6.56871,0 -12.27657,1.40357 -17.10486,4.21071c-4.79086,2.78843 -8.47757,6.73714 -11.07886,11.90229a40.01114,40.01114 0 0 0 -3.83643,18.09671l0,9.35714c0,6.92429 1.29129,12.93157 3.83643,18.05928c2.60129,5.109 6.288,9.07643 11.07886,11.90229a33.68571,33.68571 0 0 0 17.10486,4.15457a33.68571,33.68571 0 0 0 11.22857,-1.87143l5.502,7.89743l14.74686,0l0,0.01871l-0.00001,0.00001zm-48.95657,-39.86143l0,-9.76886c0,-4.60371 0.71114,-8.53371 2.13343,-11.79a17.03,17.03 0 0 1 6.08214,-7.44829a16.56214,16.56214 0 0 1 9.26357,-2.58257c3.59314,0 6.681,0.86086 9.26357,2.58257a16.46857,16.46857 0 0 1 6.08214,7.44829c1.441,3.25629 2.15214,7.18629 2.15214,11.79l0,9.76886c0,3.06914 -0.33686,5.83886 -0.99186,8.32786c-0.655,2.43286 -1.62814,4.56629 -2.90071,6.36286l-1.98371,-2.62l-1.965,-2.751l-13.71757,0l8.44014,12.16429a11.93971,11.93971 0 0 1 -4.69729,0.87957a16.31886,16.31886 0 0 1 -9.11386,-2.751a17.14228,17.14228 0 0 1 -5.98857,-7.56057a31.25286,31.25286 0 0 1 -2.05857,-12.052l0.00001,-0.00001zm74.59514,19.781l31.73943,0l0,12.61343l-46.54243,0l0,-74.83843l14.78429,0l0,62.225l0.01871,0z" fill-rule="evenodd" id="svg_3" stroke="null"/>
  </g>
 </g>

</svg>